<svg width="56" height="62" viewBox="0 0 56 62" fill="none" xmlns="http://www.w3.org/2000/svg">
<path d="M24 1.30941C26.4752 -0.119656 29.5248 -0.119655 32 1.30941L51.7128 12.6906C54.188 14.1197 55.7128 16.7607 55.7128 19.6188V42.3812C55.7128 45.2393 54.188 47.8803 51.7128 49.3094L32 60.6906C29.5248 62.1197 26.4752 62.1197 24 60.6906L4.2872 49.3094C1.81199 47.8803 0.287201 45.2393 0.287201 42.3812V19.6188C0.287201 16.7607 1.81199 14.1197 4.2872 12.6906L24 1.30941Z" fill="white"/>
<path fill-rule="evenodd" clip-rule="evenodd" d="M50.2128 15.2887L30.5 3.90748C28.953 3.01432 27.047 3.01432 25.5 3.90748L5.7872 15.2887C4.2402 16.1818 3.2872 17.8325 3.2872 19.6188V42.3812C3.2872 44.1675 4.2402 45.8182 5.7872 46.7113L25.5 58.0925C27.047 58.9857 28.953 58.9857 30.5 58.0925L50.2128 46.7113C51.7598 45.8182 52.7128 44.1675 52.7128 42.3812V19.6188C52.7128 17.8325 51.7598 16.1818 50.2128 15.2887ZM32 1.30941C29.5248 -0.119655 26.4752 -0.119656 24 1.30941L4.2872 12.6906C1.81199 14.1197 0.287201 16.7607 0.287201 19.6188V42.3812C0.287201 45.2393 1.81199 47.8803 4.2872 49.3094L24 60.6906C26.4752 62.1197 29.5248 62.1197 32 60.6906L51.7128 49.3094C54.188 47.8803 55.7128 45.2393 55.7128 42.3812V19.6188C55.7128 16.7607 54.188 14.1197 51.7128 12.6906L32 1.30941Z" fill="#130B43"/>
<path fill-rule="evenodd" clip-rule="evenodd" d="M28.875 17.875C24.4292 17.8686 20.33 20.2748 18.1683 24.1596C16.0066 28.0445 16.1228 32.7963 18.4718 36.5708L14.875 44.125L22.4292 40.5282C26.8465 43.2746 32.5166 42.932 36.5711 39.6736C40.6255 36.4152 42.1801 30.9516 40.4485 26.0468C38.7168 21.142 34.0765 17.8656 28.875 17.875Z" stroke="#130B43" stroke-width="2" stroke-linecap="round" stroke-linejoin="round"/>
<path fill-rule="evenodd" clip-rule="evenodd" d="M32.375 32.75C32.375 34.683 30.808 36.25 28.875 36.25C26.942 36.25 25.375 34.683 25.375 32.75H32.375Z" stroke="#130B43" stroke-width="1.5" stroke-linecap="round" stroke-linejoin="round"/>
<path d="M23.625 27.9375C23.3834 27.9375 23.1875 28.1334 23.1875 28.375C23.1875 28.6166 23.3834 28.8125 23.625 28.8125C23.8666 28.8125 24.0625 28.6166 24.0625 28.375C24.0625 28.1334 23.8666 27.9375 23.625 27.9375" stroke="#130B43" stroke-width="1.5" stroke-linecap="round" stroke-linejoin="round"/>
<path d="M34.125 27.9375C33.8834 27.9375 33.6875 28.1334 33.6875 28.375C33.6875 28.6166 33.8834 28.8125 34.125 28.8125C34.3666 28.8125 34.5625 28.6166 34.5625 28.375C34.5625 28.1334 34.3666 27.9375 34.125 27.9375" stroke="#130B43" stroke-width="1.5" stroke-linecap="round" stroke-linejoin="round"/>
</svg>
